<svg id="Javascript" xmlns="http://www.w3.org/2000/svg" xmlns:xlink="http://www.w3.org/1999/xlink" width="50" height="50" viewBox="0 0 50 50">
  <defs>
    <clipPath id="clip-path">
      <rect id="Rectangle_6" data-name="Rectangle 6" width="50" height="50" fill="#fff"/>
    </clipPath>
  </defs>
  <g id="Mask_Group_6" data-name="Mask Group 6" clip-path="url(#clip-path)">
    <g id="Javascript-2" data-name="Javascript">
      <rect id="Rectangle_7" data-name="Rectangle 7" width="50" height="50" fill="#f7df1e"/>
      <path id="Path_11" data-name="Path 11" d="M186.263,302.231a5.107,5.107,0,0,0,4.626,2.848c1.943,0,3.184-.971,3.184-2.313,0-1.608-1.275-2.178-3.414-3.113l-1.172-.5c-3.384-1.442-5.632-3.248-5.632-7.066,0-3.517,2.68-6.194,6.868-6.194a6.931,6.931,0,0,1,6.67,3.755l-3.652,2.345a3.189,3.189,0,0,0-3.018-2.01,2.04,2.04,0,0,0-2.244,2.01c0,1.407.871,1.976,2.883,2.848l1.172.5c3.984,1.709,6.234,3.45,6.234,7.367,0,4.222-3.317,6.535-7.771,6.535-4.355,0-7.169-2.075-8.545-4.8Zm-16.566.406c.737,1.307,1.407,2.412,3.018,2.412,1.541,0,2.513-.6,2.513-2.947V286.158h4.689v16.009c0,4.856-2.847,7.066-7,7.066a7.28,7.28,0,0,1-7.035-4.283Z" transform="translate(-152.692 -263.196)"/>
    </g>
  </g>
</svg>
