<svg id="React" xmlns="http://www.w3.org/2000/svg" xmlns:xlink="http://www.w3.org/1999/xlink" width="50" height="50" viewBox="0 0 50 50">
  <defs>
    <clipPath id="clip-path">
      <rect id="Rectangle_6" data-name="Rectangle 6" width="50" height="50" fill="#fff"/>
    </clipPath>
  </defs>
  <g id="Mask_Group_4" data-name="Mask Group 4" clip-path="url(#clip-path)">
    <g id="React-2" data-name="React" transform="translate(0.5 3)">
      <path id="Path_6" data-name="Path 6" d="M40.7,14.274h0q-.79-.271-1.594-.5.133-.541.246-1.087C40.558,6.83,39.769,2.113,37.076.56,34.494-.929,30.271.624,26.005,4.336q-.63.55-1.232,1.131-.4-.386-.82-.758C19.483.74,15-.932,12.312.625,9.732,2.119,8.968,6.553,10.054,12.1q.162.824.366,1.64c-.634.18-1.246.372-1.832.576C3.347,16.145,0,19.009,0,21.979c0,3.068,3.593,6.145,9.052,8.01q.664.226,1.339.418-.219.878-.389,1.767c-1.035,5.453-.227,9.782,2.346,11.266C15,44.973,19.465,43.4,23.808,39.6q.515-.45,1.033-.952.652.629,1.338,1.221c4.207,3.62,8.362,5.082,10.933,3.594,2.655-1.537,3.518-6.188,2.4-11.847q-.128-.648-.3-1.323.47-.139.921-.287c5.675-1.88,9.367-4.92,9.367-8.028C49.5,19,46.045,16.115,40.7,14.274ZM27.394,5.931c3.655-3.181,7.07-4.436,8.626-3.539h0c1.657.956,2.3,4.811,1.261,9.866q-.1.494-.223.984A50.658,50.658,0,0,0,30.44,12.2a49.674,49.674,0,0,0-4.184-5.222Q26.812,6.439,27.394,5.931ZM14.616,24.516q.671,1.3,1.4,2.561.747,1.289,1.554,2.542a45.026,45.026,0,0,1-4.562-.733C13.448,27.475,13.987,26.008,14.616,24.516Zm0-4.973c-.616-1.461-1.143-2.9-1.573-4.283,1.412-.316,2.918-.574,4.488-.77q-.788,1.229-1.517,2.494T14.613,19.543Zm1.124,2.487q.977-2.034,2.105-3.991h0q1.127-1.955,2.4-3.821c1.472-.111,2.982-.17,4.507-.17s3.044.059,4.516.171q1.259,1.861,2.385,3.808T33.785,22q-.992,2.041-2.127,4.007h0q-1.125,1.954-2.375,3.832c-1.469.1-2.986.159-4.533.159s-3.039-.048-4.482-.142q-1.282-1.872-2.419-3.837T15.737,22.03ZM33.49,27.063q.747-1.3,1.435-2.623h0a44.909,44.909,0,0,1,1.662,4.354,44.876,44.876,0,0,1-4.618.787q.785-1.244,1.52-2.519ZM34.9,19.544q-.686-1.3-1.424-2.576h0q-.726-1.254-1.505-2.475c1.579.2,3.093.464,4.513.789A45.1,45.1,0,0,1,34.9,19.544ZM24.774,8.487A45.226,45.226,0,0,1,27.687,12q-2.924-.138-5.85,0C22.8,10.734,23.783,9.556,24.774,8.487Zm-11.4-6.032c1.656-.959,5.318.408,9.177,3.835.247.219.494.448.743.686a50.674,50.674,0,0,0-4.217,5.218,51.67,51.67,0,0,0-6.605,1.027q-.189-.758-.34-1.525h0C11.2,6.942,11.816,3.355,13.371,2.455ZM10.957,28.371q-.616-.176-1.222-.383a17.914,17.914,0,0,1-5.773-3.067,4.37,4.37,0,0,1-1.848-2.943c0-1.8,2.687-4.1,7.169-5.664q.844-.293,1.7-.536A50.715,50.715,0,0,0,13.4,22.03a51.484,51.484,0,0,0-2.443,6.341Zm11.46,9.639a17.909,17.909,0,0,1-5.541,3.469h0a4.37,4.37,0,0,1-3.472.131c-1.562-.9-2.21-4.377-1.325-9.04q.158-.827.362-1.643a49.725,49.725,0,0,0,6.671.966,51.458,51.458,0,0,0,4.249,5.25Q22.9,37.587,22.417,38.01Zm2.415-2.39c-1-1.082-2-2.278-2.978-3.564q1.422.056,2.9.056,1.514,0,2.988-.066a44.97,44.97,0,0,1-2.906,3.575Zm12.841,2.942a4.37,4.37,0,0,1-1.621,3.073c-1.56.9-4.9-.271-8.494-3.367q-.619-.532-1.245-1.135a49.691,49.691,0,0,0,4.149-5.269,49.363,49.363,0,0,0,6.7-1.033q.151.611.268,1.2h0a17.906,17.906,0,0,1,.238,6.533ZM39.468,28h0c-.271.09-.548.176-.831.26a49.631,49.631,0,0,0-2.507-6.271,49.611,49.611,0,0,0,2.409-6.179c.506.147,1,.3,1.471.464,4.581,1.577,7.375,3.908,7.375,5.7,0,1.914-3.018,4.4-7.917,6.021Z" transform="translate(0 0)" fill="#61dafb"/>
      <path id="Path_7" data-name="Path 7" d="M13.866,8.159a4.42,4.42,0,1,1-4.42,4.42,4.42,4.42,0,0,1,4.42-4.42" transform="translate(10.884 9.4)" fill="#61dafb"/>
    </g>
  </g>
</svg>
