<svg id="XD" xmlns="http://www.w3.org/2000/svg" xmlns:xlink="http://www.w3.org/1999/xlink" width="50" height="50" viewBox="0 0 50 50">
  <defs>
    <clipPath id="clip-path">
      <rect id="Rectangle_5" data-name="Rectangle 5" width="50" height="50" fill="#fff"/>
    </clipPath>
  </defs>
  <g id="Group_2" data-name="Group 2" clip-path="url(#clip-path)">
    <g id="XD-2" data-name="XD" transform="translate(0 0.5)">
      <path id="Path_1" data-name="Path 1" d="M41.027,48.609H8.828A8.821,8.821,0,0,1,0,39.78V8.828A8.821,8.821,0,0,1,8.828,0h32.2a8.821,8.821,0,0,1,8.828,8.828V39.78A8.821,8.821,0,0,1,41.027,48.609Z" fill="#ff26be"/>
      <path id="Path_2" data-name="Path 2" d="M48.16,54.454H17.541A7.553,7.553,0,0,1,10,46.914V17.541A7.553,7.553,0,0,1,17.541,10h30.6a7.54,7.54,0,0,1,7.541,7.541V46.893A7.527,7.527,0,0,1,48.16,54.454Z" transform="translate(-7.923 -7.923)" fill="#2e001f"/>
      <path id="Path_3" data-name="Path 3" d="M55.212,67.827,61.029,79c.1.166.042.332-.125.332H57.29a.408.408,0,0,1-.436-.27c-1.329-2.742-2.68-5.484-4.071-8.434H52.74c-1.246,2.784-2.617,5.713-3.947,8.455a.4.4,0,0,1-.374.229H44.992c-.208,0-.229-.166-.125-.291L50.559,68.18l-5.5-10.968a.168.168,0,0,1,.125-.291h3.573a.327.327,0,0,1,.374.229c1.309,2.742,2.638,5.567,3.885,8.33h.042c1.2-2.742,2.534-5.588,3.822-8.309.1-.166.166-.27.374-.27h3.344c.166,0,.229.125.125.291Zm6.834,3.386c0-4.84,3.22-8.621,8.33-8.621a9.213,9.213,0,0,1,1.08.042v-5.5a.208.208,0,0,1,.208-.208h3.282c.166,0,.208.062.208.166v19.07a14.8,14.8,0,0,0,.1,2.036c0,.125-.042.166-.166.229a12.374,12.374,0,0,1-5.318,1.2C65.266,79.646,62.047,76.863,62.047,71.213Zm9.41-5.318a3.142,3.142,0,0,0-1.2-.208c-2.617,0-4.445,2.015-4.445,5.359,0,3.822,1.87,5.359,4.217,5.359a3.919,3.919,0,0,0,1.433-.229Z" transform="translate(-35.499 -45.08)" fill="#ffd9f2"/>
    </g>
  </g>
</svg>
